<svg version="1.1" id="prefix__Layer_1" xmlns="http://www.w3.org/2000/svg" x="0" y="0" viewBox="0 0 212 212" xml:space="preserve"><style>.prefix__st0{fill:#f3f8ff}.prefix__st1{fill:none;stroke:#1e2126;stroke-width:4;stroke-linecap:round;stroke-linejoin:round;stroke-miterlimit:10}.prefix__st2{fill:#c9d2f0}.prefix__st5{fill:#fff}.prefix__st6{fill:none;stroke:#d5dbed;stroke-width:2;stroke-linecap:round;stroke-linejoin:round;stroke-miterlimit:10}</style><path class="prefix__st0" d="M41.3 29h67.5v34H41.3z"/><path class="prefix__st0" d="M150.1 29h-100v146c0 4.4 3.6 8 8 8h104c4.4 0 8-3.6 8-8V49c0-11-9-20-20-20z"/><path class="prefix__st1" d="M50.1 92.2V70.5M50.1 106v-5M170.1 165v10c0 4.4-3.6 8-8 8h-104c-4.4 0-8-3.6-8-8v-58.5M37.1 29h113c11 0 20 9 20 20v91"/><path class="prefix__st2" d="M75.5 58.2H100c1.7 0 3-1.3 3-3s-1.3-3-3-3H75.5c-1.7 0-3 1.3-3 3 0 1.6 1.3 3 3 3zM76.5 80.2h67.2c2.2 0 4-1.8 4-4s-1.8-4-4-4H76.5c-2.2 0-4 1.8-4 4s1.8 4 4 4zM76.5 96.2h67.2c2.2 0 4-1.8 4-4s-1.8-4-4-4H76.5c-2.2 0-4 1.8-4 4s1.8 4 4 4zM76.5 112.2h67.2c2.2 0 4-1.8 4-4s-1.8-4-4-4H76.5c-2.2 0-4 1.8-4 4s1.8 4 4 4zM76.5 128.2h67.2c2.2 0 4-1.8 4-4s-1.8-4-4-4H76.5c-2.2 0-4 1.8-4 4s1.8 4 4 4z"/><g><path d="M37.1 29c7.2 0 13 5.8 13 13v33.8h-18c-4.4 0-8-3.6-8-8V42c0-7.2 5.8-13 13-13z" fill="#7289da"/><path class="prefix__st1" d="M37.1 29c7.2 0 13 5.8 13 13v33.8h-18c-4.4 0-8-3.6-8-8V42c0-7.2 5.8-13 13-13z"/></g><g><path d="M182.1 157h-72c-4.4 0-8-3.6-8-8v-40c0-4.4 3.6-8 8-8h72c4.4 0 8 3.6 8 8v40c0 4.4-3.6 8-8 8z" fill="#ff6f57"/><path class="prefix__st1" d="M147.7 101h34.4c4.4 0 8 3.6 8 8v40c0 4.4-3.6 8-8 8h-72c-4.4 0-8-3.6-8-8v-40c0-4.4 3.6-8 8-8h17"/><path class="prefix__st5" d="M113.1 140c1.1 0 2-.9 2-2v-6c0-1.1-.9-2-2-2s-2 .9-2 2v6c0 1.1.9 2 2 2zM119.1 140c1.1 0 2-.9 2-2v-6c0-1.1-.9-2-2-2s-2 .9-2 2v6c0 1.1.9 2 2 2zM125.1 140c1.1 0 2-.9 2-2v-6c0-1.1-.9-2-2-2s-2 .9-2 2v6c0 1.1.9 2 2 2zM167.1 140c1.1 0 2-.9 2-2v-6c0-1.1-.9-2-2-2s-2 .9-2 2v6c0 1.1.9 2 2 2zM173.1 140c1.1 0 2-.9 2-2v-6c0-1.1-.9-2-2-2s-2 .9-2 2v6c0 1.1.9 2 2 2zM179.1 140c1.1 0 2-.9 2-2v-6c0-1.1-.9-2-2-2s-2 .9-2 2v6c0 1.1.9 2 2 2zM137.1 140c1.1 0 2-.9 2-2v-6c0-1.1-.9-2-2-2s-2 .9-2 2v6c0 1.1.9 2 2 2zM143.1 140c1.1 0 2-.9 2-2v-6c0-1.1-.9-2-2-2s-2 .9-2 2v6c0 1.1.9 2 2 2zM149.1 140c1.1 0 2-.9 2-2v-6c0-1.1-.9-2-2-2s-2 .9-2 2v6c0 1.1.9 2 2 2zM155.1 140c1.1 0 2-.9 2-2v-6c0-1.1-.9-2-2-2s-2 .9-2 2v6c0 1.1.9 2 2 2z"/></g><g><path class="prefix__st6" d="M24.4 94.6l-2 2.5M14.4 104.9l-2 2.5M24.8 107.1l-2.1-2.4M14.1 97.3L12 94.9"/><g><path class="prefix__st6" d="M191.6 73.5v10.4M196.8 78.7h-10.4"/></g></g><circle class="prefix__st6" cx="32.8" cy="126" r="6"/></svg>